<?xml version="1.0" encoding="utf-8"?><!-- Uploaded to: SVG Repo, www.svgrepo.com, Generator: SVG Repo Mixer Tools -->
<svg width="800px" height="800px" viewBox="0 0 24 24" fill="none" xmlns="http://www.w3.org/2000/svg">
<path d="M7 11C8.10457 11 9 10.1046 9 9C9 7.89543 8.10457 7 7 7C5.89543 7 5 7.89543 5 9C5 10.1046 5.89543 11 7 11Z" stroke="#000000" stroke-width="1.5" stroke-linecap="round" stroke-linejoin="round"/>
<path d="M5.56055 21C11.1305 11.1 15.7605 9.35991 21.0005 15.7899" stroke="#000000" stroke-width="1.5" stroke-linecap="round" stroke-linejoin="round"/>
<path d="M14.35 3H5C3.93913 3 2.92172 3.42136 2.17157 4.17151C1.42142 4.92165 1 5.93913 1 7V17C1 18.0609 1.42142 19.0782 2.17157 19.8284C2.92172 20.5785 3.93913 21 5 21H17C18.0609 21 19.0783 20.5785 19.8284 19.8284C20.5786 19.0782 21 18.0609 21 17V9" stroke="#000000" stroke-width="1.5" stroke-linecap="round" stroke-linejoin="round"/>
<path d="M22.3098 3.16996L17.2098 8.26005C16.7098 8.77005 15.2098 8.99996 14.8698 8.66996C14.5298 8.33996 14.7598 6.82999 15.2698 6.31999L20.3599 1.23002C20.6171 0.964804 20.9692 0.812673 21.3386 0.807047C21.7081 0.80142 22.0646 0.942731 22.3298 1.19999C22.5951 1.45725 22.7472 1.8093 22.7529 2.17875C22.7585 2.5482 22.6171 2.90475 22.3599 3.16996H22.3098Z" stroke="#000000" stroke-width="1.5" stroke-linecap="round" stroke-linejoin="round"/>
</svg>